# xmcd
#
# Track frame offsets:
#	150
#	15820
#	36215
#	54035
#	73950
#	93752
#	115912
#	134022
#	149397
#	168640
#
# Disc length: 2550 seconds
#
# Revision: 3
# Processed by: cddbd v1.5.2PL0 Copyright (c) Steve Scherf et al.
# Submitted via: EZCDAudioConverter 8.0.2.1
#
DISCID=8409f40a
DTITLE=Various Artist - Top Hist 6. Tiếc Làm Gì
DYEAR=2001
DGENRE=
TTITLE0=Lưu Bích - Tình xót xa
TTITLE1=Don Hồ - Như cánh vạc bay
TTITLE2=Châu Ngọc - Tình yêu không lời
TTITLE3=Thiên Kim - Tiếc Làm Gì
TTITLE4=Thê Sơn - Tình yêu còn đây
TTITLE5=Ngọc Ánh - Tiếng sét trong vườn hoang
TTITLE6=Tommy Ngô, Trúc Linh - Nhịp đập con tim
TTITLE7=Lynda Trang Đài - Got To Fight
TTITLE8=Lây Minh, Trúc Lam - Ru tình quên lãng
TTITLE9=Như Quỳnh, Lưu Bích, Thiên Kim, Thế Sơn, Don Hồ - Ước vọng tương l
TTITLE9=ai
EXTD=
EXTT0=
EXTT1=
EXTT2=
EXTT3=
EXTT4=
EXTT5=
EXTT6=
EXTT7=
EXTT8=
EXTT9=
PLAYORDER=
